<svg width="644" height="429" viewBox="0 0 644 429" fill="none" xmlns="http://www.w3.org/2000/svg">
<g clip-path="url(#clip0_206_386)">
<g style="mix-blend-mode:overlay" opacity="0.8">
<path d="M-58.825 75.504C-17.0662 106.392 26.1169 137.151 74.6797 150.15C123.243 163.149 178.867 155.35 215.246 116.688C226.511 104.676 236.868 89.3436 252.063 86.4778C277.571 81.673 297.382 105.954 322.753 111.686C350.338 117.915 374.01 99.7168 391.393 74.6289C408.776 49.5409 429.145 20.858 457.253 20.4118C483.096 20.0086 505.301 44.5045 531.162 44.4358C552.371 44.4358 570.364 28.1338 589.24 17.1429C608.116 6.15188 634.714 2.16218 647.584 21.2527L648.647 -17.9064L-64.0503 -23.7408L-58.825 75.504Z" fill="#20222A" fill-opacity="0.5"/>
</g>
<g style="mix-blend-mode:overlay" opacity="0.8">
<path d="M-61.2012 183.895C-12.587 192.475 11.1539 193.29 46.9068 187.327C91.5228 179.88 152.87 154.972 178.747 117.829C189.24 102.78 213.427 71.8575 230.802 66.066C246.709 60.7636 277.134 70.9309 298.584 69.2835C330.253 66.8554 345.474 34.7662 377.237 35.4612C410.922 36.199 447.404 50.193 477.855 35.7529C494.268 27.9622 508.211 14.2514 526.1 11.0596C538.867 8.77735 551.84 12.2265 564.41 15.5727C576.979 18.9189 590.029 22.1879 602.736 19.571C615.443 16.9541 631.771 7.43887 643.5 -10.8708C643.5 -10.8708 -36.0361 -10.133 -35.4612 -7.78205C-34.8864 -5.43113 -56.834 181.167 -61.2012 183.895Z" fill="#21232C"/>
</g>
<path d="M-21.9822 157.735C-23.784 158.859 -19.168 216.388 -20.9612 217.503C0.729065 226.666 36.3961 216.139 55.1263 196.482C86.8122 163.234 82.4193 137.7 92.9469 116.636C98.5497 105.414 103.14 91.7544 114.826 87.2414C129.558 81.5099 145.139 91.2654 160.875 89.6609C175.384 88.1766 186.186 78.0779 193.402 65.4053C200.617 52.7326 207.13 38.5499 219.656 31.0853C237.975 20.1629 261.527 27.842 280.42 37.7262C299.313 47.6103 318.927 59.9398 340.128 57.6232C355.521 55.9072 369.3 46.3748 378.695 34.0625C388.09 21.7502 393.556 6.86393 397.408 -8.10817C397.408 -8.10817 -19.2452 -7.13005 -20.9612 -8.56291C-22.6772 -9.99577 -20.9612 154.723 -20.9612 154.723" fill="url(#paint0_linear_206_386)"/>
<path d="M-16.705 -13.8568C-16.705 -14.2943 -16.4562 -14.6461 -16.1473 -14.6461H187.499C184.755 -5.11986 179.088 3.3043 171.3 9.43794C164.573 14.7404 156.491 18.3354 148.185 21.0381C139.88 23.7408 131.317 25.6027 122.84 27.8163C114.363 30.0299 105.955 32.6039 98.2927 36.628C90.6308 40.652 83.7067 46.1947 79.3224 53.3418C74.2773 61.5872 72.9474 71.4199 73.3164 80.9179C73.6853 90.416 75.5901 99.7939 76.5939 109.232C78.2585 124.908 77.3747 140.978 72.5356 156.027C67.6964 171.077 58.7389 185.199 45.9375 195.418C33.1362 205.637 16.2507 211.651 -0.557465 210.751C-6.03221 210.467 -11.4436 209.445 -16.645 207.713L-16.705 -13.8568Z" fill="url(#paint1_linear_206_386)"/>
<path d="M-38.6101 194.054C-20.8385 197.51 -2.43701 195.506 14.1741 188.305C23.6635 184.221 33.3332 177.554 36.5678 166.855C40.2229 154.783 34.4915 142.093 28.5542 131.403C22.6168 120.712 16.0616 108.966 18.0179 96.4648C19.9741 83.9638 29.8497 74.869 39.528 67.9106C49.2062 60.9522 59.8883 54.3113 65.4052 43.1058C70.0384 33.6678 70.2186 22.1878 67.1212 12.2178C64.0238 2.24786 57.9492 -6.31498 50.8192 -13.2219L-6.4437 -21.8019L-38.6101 194.054Z" fill="url(#paint2_linear_206_386)"/>
<path d="M-3.78366 198.884C2.44522 198.87 8.63693 197.924 14.5861 196.079C29.4981 191.454 41.9306 181.579 48.6916 168.974C52.7071 161.493 55.2039 152.938 57.6148 144.659C61.8362 130.176 65.8173 116.499 77.2544 107.911C92.7756 96.2504 114.869 100.283 134.432 105.774C155.684 111.78 176.122 116.259 192.458 106.195C203.406 99.4422 209.618 87.5846 215.624 76.1131C216.465 74.5001 217.323 72.8985 218.198 71.3083C227.439 54.1483 237.563 44.8305 249.138 42.9943C264.71 40.4203 280.068 47.3444 296.328 54.6374C298.773 55.7356 301.304 56.8682 303.844 57.975C325.071 67.2328 349.129 77.709 380.506 60.3259C407.027 45.6284 427.087 19.9313 435.538 -10.1845L435.04 -10.3218C426.623 19.6567 406.658 45.2423 380.257 59.8798C349.103 77.1427 325.165 66.7438 304.05 57.5117C301.476 56.3963 298.979 55.2637 296.533 54.1655C280.231 46.8468 264.787 39.9227 249.052 42.4795C237.314 44.3929 227.07 53.7537 217.743 71.111C216.897 72.7012 216.039 74.3028 215.169 75.9158C209.163 87.3272 202.994 99.1247 192.166 105.8C176.002 115.761 155.684 111.257 134.543 105.319C114.861 99.8025 92.6212 95.7442 76.9198 107.542C65.3454 116.233 61.3385 129.987 57.0914 144.556C54.689 152.81 52.2008 161.347 48.2111 168.777C34.2343 194.817 -2.41089 206.169 -28.6571 192.587L-28.8973 193.05C-21.1108 196.969 -12.5002 198.969 -3.78366 198.884Z" fill="white"/>
<g style="mix-blend-mode:soft-light">
<path d="M97.5715 57.8744L93.3967 53.6996L95.0768 52.0196L99.2515 56.1943L97.5715 57.8744ZM94.1604 61.2855L89.9856 57.1107L91.6657 55.4306L95.8405 59.6054L94.1604 61.2855ZM116.638 76.9408L112.463 72.7661L114.143 71.086L118.318 75.2607L116.638 76.9408ZM113.227 80.3519L109.052 76.1771L110.732 74.4971L114.907 78.6718L113.227 80.3519ZM108.237 80.3519L90.062 62.1764L94.364 57.8744C95.8065 56.4319 97.1642 55.3797 98.437 54.7179C99.6928 54.039 100.898 53.7845 102.052 53.9542C103.206 54.1239 104.343 54.7688 105.463 55.8888C106.159 56.5846 106.693 57.3059 107.066 58.0526C107.44 58.7993 107.618 59.5375 107.601 60.2672C107.584 60.997 107.372 61.6843 106.965 62.3292L107.092 62.4564C107.771 62.0152 108.492 61.7352 109.256 61.6164C110.002 61.4806 110.8 61.5825 111.649 61.9219C112.497 62.2273 113.397 62.8553 114.347 63.8056C115.45 64.9087 116.154 66.0881 116.46 67.344C116.782 68.5828 116.706 69.8471 116.231 71.1369C115.755 72.4267 114.907 73.6825 113.685 74.9044L108.237 80.3519ZM102.204 64.8493C103.257 63.7971 103.774 62.8722 103.757 62.0746C103.757 61.26 103.35 60.4454 102.535 59.6308C101.738 58.8332 100.915 58.5023 100.066 58.6381C99.2346 58.7569 98.2927 59.3423 97.2405 60.3945L96.0186 61.6164L100.728 66.3257L102.204 64.8493ZM103.35 68.9477L108.772 74.3698L110.528 72.6133C111.615 71.5272 112.115 70.5175 112.03 69.5841C111.929 68.6337 111.462 67.7428 110.63 66.9112C110.087 66.3682 109.527 65.9948 108.95 65.7912C108.373 65.5875 107.762 65.6045 107.117 65.8421C106.456 66.0627 105.743 66.5548 104.979 67.3185L103.35 68.9477Z" fill="white"/>
</g>
<g style="mix-blend-mode:soft-light">
<path d="M311.189 34.1807L314.702 30.6678L310.553 29.8787L311.037 27.4095L316.866 28.5041L319.233 26.1367L315.084 25.3476L315.568 22.8783L321.397 23.9729L326.616 18.7545L321.448 13.587L324.197 10.8377L337.765 24.4057L335.016 27.1549L329.823 21.9619L326.692 25.093L331.045 25.8821L330.587 28.3768L324.554 27.2313L322.161 29.6241L326.514 30.4133L326.03 32.8825L320.023 31.7624L314.397 37.3882L311.189 34.1807Z" fill="white"/>
</g>
<g style="mix-blend-mode:soft-light">
<path d="M19.8868 48.5906L18.8711 44.8003L36.5012 40.0764L37.5168 43.8667L19.8868 48.5906ZM19.0102 36.9737L17.9946 33.1834L31.4519 29.5775L32.4675 33.3678L19.0102 36.9737ZM14.9451 27.3664L13.9295 23.5761L30.1687 19.2249L31.1843 23.0151L14.9451 27.3664Z" fill="white"/>
</g>
</g>
<defs>
<linearGradient id="paint0_linear_206_386" x1="397.408" y1="106.135" x2="-22.4112" y2="106.135" gradientUnits="userSpaceOnUse">
<stop stop-color="#EB0000"/>
<stop offset="1" stop-color="#982824"/>
</linearGradient>
<linearGradient id="paint1_linear_206_386" x1="187.499" y1="98.1123" x2="-16.705" y2="98.1123" gradientUnits="userSpaceOnUse">
<stop stop-color="#323643"/>
<stop offset="1" stop-color="#13151A"/>
</linearGradient>
<linearGradient id="paint2_linear_206_386" x1="59.7484" y1="92.2109" x2="-31.7401" y2="83.062" gradientUnits="userSpaceOnUse">
<stop stop-color="#EB0000"/>
<stop offset="1" stop-color="#982824"/>
</linearGradient>
<clipPath id="clip0_206_386">
<rect width="643.5" height="429" fill="white" transform="matrix(-1 0 0 1 643.5 0)"/>
</clipPath>
</defs>
</svg>
