<svg width="360" height="240" viewBox="0 0 360 240" fill="none" xmlns="http://www.w3.org/2000/svg">
<g clip-path="url(#clip0_206_499)">
<g style="mix-blend-mode:overlay" opacity="0.8">
<path d="M-32.908 42.24C-9.54636 59.52 14.612 76.728 41.78 84C68.948 91.272 100.066 86.9088 120.418 65.28C126.721 58.56 132.514 49.9824 141.015 48.3792C155.286 45.6912 166.369 59.2752 180.562 62.4816C195.994 65.9664 209.238 55.7856 218.962 41.7504C228.687 27.7152 240.082 11.6688 255.807 11.4192C270.265 11.1936 282.687 24.8976 297.154 24.8592C309.02 24.8592 319.086 15.7392 329.646 9.59039C340.206 3.44158 355.086 1.20959 362.286 11.8896L362.881 -10.0176L-35.8312 -13.2816L-32.908 42.24Z" fill="#1C1E26" fill-opacity="0.5"/>
</g>
<g style="mix-blend-mode:overlay" opacity="0.8">
<path d="M-34.2385 102.878C-7.04167 107.678 6.23993 108.134 26.2415 104.798C51.2015 100.632 85.5216 86.6976 99.9984 65.9184C105.869 57.4992 119.4 40.2 129.12 36.96C138.019 33.9936 155.04 39.6816 167.04 38.76C184.757 37.4016 193.272 19.4496 211.042 19.8384C229.886 20.2512 250.296 28.08 267.331 20.0016C276.514 15.6432 284.314 7.9728 294.322 6.1872C301.464 4.9104 308.722 6.84 315.754 8.712C322.786 10.584 330.086 12.4128 337.195 10.9488C344.304 9.4848 353.438 4.1616 360 -6.0816C360 -6.0816 -20.1601 -5.6688 -19.8385 -4.3536C-19.5169 -3.0384 -31.7953 101.352 -34.2385 102.878Z" fill="#1C1E26" fill-opacity="0.5"/>
</g>
<path d="M-12.2978 88.2431C-13.3058 88.8719 -10.7234 121.056 -11.7266 121.68C0.407791 126.806 20.3614 120.917 30.8398 109.92C48.5662 91.3199 46.1086 77.0351 51.9982 65.2511C55.1326 58.9727 57.7006 51.3311 64.2382 48.8063C72.4798 45.5999 81.1966 51.0575 89.9998 50.1599C98.1166 49.3295 104.16 43.6799 108.197 36.5903C112.233 29.5007 115.877 21.5663 122.885 17.3903C133.133 11.2799 146.309 15.5759 156.878 21.1055C167.448 26.6351 178.421 33.5327 190.281 32.2367C198.893 31.2767 206.601 25.9439 211.857 19.0559C217.113 12.1679 220.171 3.83994 222.326 -4.53605C222.326 -4.53605 -10.7666 -3.98885 -11.7266 -4.79045C-12.6866 -5.59205 -11.7266 86.5583 -11.7266 86.5583" fill="url(#paint0_linear_206_499)"/>
<path d="M-9.34547 -7.752C-9.34547 -7.9968 -9.20629 -8.1936 -9.03349 -8.1936H104.895C103.359 -2.86423 100.189 1.84859 95.8321 5.28C92.0689 8.2464 87.5473 10.2576 82.9009 11.7696C78.2545 13.2816 73.4641 14.3232 68.7217 15.5616C63.9793 16.8 59.2753 18.24 54.9889 20.4912C50.7025 22.7424 46.8289 25.8432 44.3761 29.8416C41.5537 34.4544 40.8097 39.9552 41.0161 45.2688C41.2225 50.5824 42.2881 55.8288 42.8497 61.1088C43.7809 69.8784 43.2865 78.8688 40.5793 87.288C37.8721 95.7072 32.8609 103.608 25.6993 109.325C18.5377 115.042 9.0913 118.406 -0.311897 117.902C-3.37469 117.744 -6.40202 117.172 -9.3119 116.203L-9.34547 -7.752Z" fill="url(#paint1_linear_206_499)"/>
<path d="M-21.5999 108.562C-11.6578 110.495 -1.36324 109.374 7.92967 105.346C13.2385 103.061 18.6481 99.3312 20.4577 93.3456C22.5025 86.592 19.2961 79.4928 15.9745 73.512C12.6529 67.5312 8.98566 60.96 10.0801 53.9664C11.1745 46.9728 16.6993 41.8848 22.1137 37.992C27.5281 34.0992 33.504 30.384 36.5904 24.1152C39.1824 18.8352 39.2832 12.4128 37.5504 6.83516C35.8176 1.25756 32.4193 -3.53284 28.4305 -7.39684L-3.60475 -12.1968L-21.5999 108.562Z" fill="url(#paint2_linear_206_499)"/>
<path d="M-2.11815 111.264C1.36655 111.256 4.83043 110.727 8.15865 109.694C16.501 107.107 23.4562 101.582 27.2386 94.5312C29.485 90.3456 30.8819 85.56 32.2307 80.928C34.5923 72.8256 36.8194 65.1744 43.2178 60.3696C51.901 53.8464 64.261 56.1024 75.205 59.1744C87.0947 62.5344 98.5282 65.04 107.667 59.4096C113.792 55.632 117.267 48.9984 120.627 42.5808C121.098 41.6784 121.578 40.7824 122.067 39.8928C127.237 30.2928 132.901 25.08 139.376 24.0528C148.088 22.6128 156.68 26.4864 165.776 30.5664C167.144 31.1808 168.56 31.8144 169.981 32.4336C181.856 37.6128 195.315 43.4736 212.869 33.7488C227.706 25.5264 238.928 11.1504 243.656 -5.69761L243.378 -5.77441C238.669 10.9968 227.499 25.3104 212.73 33.4992C195.301 43.1568 181.909 37.3392 170.096 32.1744C168.656 31.5504 167.259 30.9168 165.891 30.3024C156.771 26.208 148.131 22.3344 139.328 23.7648C132.762 24.8352 127.031 30.072 121.813 39.7824C121.339 40.672 120.859 41.568 120.373 42.4704C117.013 48.8544 113.562 55.4544 107.504 59.1888C98.461 64.7616 87.0947 62.2416 75.2674 58.92C64.2562 55.8336 51.8147 53.5632 43.0307 60.1632C36.5555 65.0256 34.3138 72.72 31.9378 80.8704C30.5938 85.488 29.2018 90.264 26.9698 94.4208C19.1507 108.989 -1.35017 115.339 -16.0334 107.741L-16.1678 108C-11.8117 110.192 -6.99457 111.311 -2.11815 111.264Z" fill="white"/>
<g style="mix-blend-mode:soft-light">
<path d="M77.8524 25.721L75.0692 22.9378L76.1893 21.8178L78.9724 24.6009L77.8524 25.721ZM75.5783 27.995L72.7951 25.2119L73.9152 24.0918L76.6984 26.875L75.5783 27.995ZM90.5633 38.4319L87.7802 35.6488L88.9002 34.5287L91.6834 37.3119L90.5633 38.4319ZM88.2893 40.706L85.5061 37.9228L86.6262 36.8028L89.4093 39.5859L88.2893 40.706ZM84.963 40.706L72.8461 28.589L75.7141 25.721C76.6757 24.7593 77.5808 24.0579 78.4294 23.6166C79.2666 23.1641 80.0699 22.9944 80.8392 23.1075C81.6085 23.2207 82.3665 23.6506 83.1132 24.3973C83.5771 24.8611 83.9335 25.342 84.1824 25.8398C84.4313 26.3376 84.5501 26.8297 84.5388 27.3162C84.5275 27.8027 84.386 28.2609 84.1145 28.6908L84.1994 28.7757C84.6519 28.4815 85.1327 28.2949 85.6419 28.2157C86.1397 28.1251 86.6714 28.193 87.2371 28.4193C87.8028 28.6229 88.4024 29.0416 89.036 29.6751C89.7714 30.4105 90.2409 31.1968 90.4445 32.034C90.6595 32.8599 90.6086 33.7028 90.2918 34.5626C89.975 35.4225 89.4093 36.2597 88.5947 37.0743L84.963 40.706ZM80.941 30.3709C81.6425 29.6695 81.9875 29.0529 81.9762 28.5211C81.9762 27.9781 81.7047 27.435 81.1616 26.8919C80.6299 26.3602 80.0812 26.1396 79.5155 26.2301C78.9611 26.3093 78.3332 26.6996 77.6318 27.4011L76.8172 28.2157L79.9567 31.3552L80.941 30.3709ZM81.7047 33.1032L85.3194 36.7179L86.4904 35.5469C87.2145 34.8229 87.5482 34.1497 87.4917 33.5274C87.4238 32.8939 87.1126 32.2999 86.5583 31.7455C86.1962 31.3835 85.8229 31.1346 85.4382 30.9988C85.0535 30.8631 84.6463 30.8744 84.2163 31.0328C83.7751 31.1798 83.2999 31.5079 82.7908 32.0171L81.7047 33.1032Z" fill="white"/>
</g>
<g style="mix-blend-mode:soft-light">
<path d="M174.95 16.386L176.8 14.5362L185.404 23.1403L183.555 24.9901L174.95 16.386ZM181.365 12.0076L183.215 10.1578L189.783 16.7255L187.933 18.5752L181.365 12.0076ZM185.557 6.45826L187.407 4.60847L195.332 12.5337L193.482 14.3835L185.557 6.45826Z" fill="white"/>
</g>
<g style="mix-blend-mode:soft-light">
<path d="M17.1411 26.8767L16.2839 23.6776L14.4452 25.8101L13.1808 24.7078L15.7559 21.7071L15.1782 19.5511L13.3395 21.6837L12.0751 20.5814L14.6502 17.5806L13.3769 12.8283L8.67086 14.0892L8 11.5856L20.3561 8.27475L21.027 10.7784L16.2978 12.0456L17.0618 14.897L18.9684 12.6469L20.256 13.743L17.5836 16.8443L18.1675 19.0235L20.0741 16.7733L21.3385 17.8756L18.6893 20.9708L20.0621 26.094L17.1411 26.8767Z" fill="white"/>
</g>
</g>
<defs>
<linearGradient id="paint0_linear_206_499" x1="222.326" y1="59.3759" x2="-12.5378" y2="59.3759" gradientUnits="userSpaceOnUse">
<stop stop-color="#EB0000"/>
<stop offset="1" stop-color="#982824"/>
</linearGradient>
<linearGradient id="paint1_linear_206_499" x1="104.895" y1="54.888" x2="-9.34547" y2="54.888" gradientUnits="userSpaceOnUse">
<stop stop-color="#323643"/>
<stop offset="1" stop-color="#13151A"/>
</linearGradient>
<linearGradient id="paint2_linear_206_499" x1="33.4258" y1="51.5865" x2="-17.7566" y2="46.4683" gradientUnits="userSpaceOnUse">
<stop stop-color="#EB0000"/>
<stop offset="1" stop-color="#982824"/>
</linearGradient>
<clipPath id="clip0_206_499">
<rect width="360" height="240" fill="white" transform="matrix(-1 0 0 1 360 0)"/>
</clipPath>
</defs>
</svg>
