<svg width="300" height="200" viewBox="0 0 300 200" fill="none" xmlns="http://www.w3.org/2000/svg">
<g clip-path="url(#clip0_206_520)">
<g style="mix-blend-mode:overlay" opacity="0.8">
<path d="M327.424 164.8C307.956 150.4 287.824 136.06 265.184 130C242.544 123.94 216.612 127.576 199.652 145.6C194.4 151.2 189.572 158.348 182.488 159.684C170.596 161.924 161.36 150.604 149.532 147.932C136.672 145.028 125.636 153.512 117.532 165.208C109.428 176.904 99.9316 190.276 86.8276 190.484C74.7796 190.672 64.4276 179.252 52.3716 179.284C42.4836 179.284 34.0956 186.884 25.2956 192.008C16.4956 197.132 4.09561 198.992 -1.90439 190.092L-2.40039 208.348L329.86 211.068L327.424 164.8Z" fill="#20232B" fill-opacity="0.5"/>
</g>
<g style="mix-blend-mode:overlay" opacity="0.8">
<path d="M328.532 114.268C305.868 110.268 294.8 109.888 278.132 112.668C257.332 116.14 228.732 127.752 216.668 145.068C211.776 152.084 200.5 166.5 192.4 169.2C184.984 171.672 170.8 166.932 160.8 167.7C146.036 168.832 138.94 183.792 124.132 183.468C108.428 183.124 91.42 176.6 77.224 183.332C69.572 186.964 63.072 193.356 54.732 194.844C48.78 195.908 42.732 194.3 36.872 192.74C31.012 191.18 24.928 189.656 19.004 190.876C13.08 192.096 5.468 196.532 0 205.068C0 205.068 316.8 204.724 316.532 203.628C316.264 202.532 326.496 115.54 328.532 114.268Z" fill="#20222A" fill-opacity="0.5"/>
</g>
<path d="M310.249 126.464C311.089 125.94 308.937 99.12 309.773 98.6C299.661 94.328 283.033 99.2361 274.301 108.4C259.529 123.9 261.577 135.804 256.669 145.624C254.057 150.856 251.917 157.224 246.469 159.328C239.601 162 232.337 157.452 225.001 158.2C218.237 158.892 213.201 163.6 209.837 169.508C206.473 175.416 203.437 182.028 197.597 185.508C189.057 190.6 178.077 187.02 169.269 182.412C160.461 177.804 151.317 172.056 141.433 173.136C134.257 173.936 127.833 178.38 123.453 184.12C119.073 189.86 116.525 196.8 114.729 203.78C114.729 203.78 308.973 203.324 309.773 203.992C310.573 204.66 309.773 127.868 309.773 127.868" fill="url(#paint0_linear_206_520)"/>
<path d="M307.788 206.46C307.788 206.664 307.672 206.828 307.528 206.828H212.588C213.867 202.387 216.509 198.46 220.14 195.6C223.276 193.128 227.044 191.452 230.916 190.192C234.788 188.932 238.78 188.064 242.732 187.032C246.684 186 250.604 184.8 254.176 182.924C257.748 181.048 260.976 178.464 263.02 175.132C265.372 171.288 265.992 166.704 265.82 162.276C265.648 157.848 264.76 153.476 264.292 149.076C263.516 141.768 263.928 134.276 266.184 127.26C268.44 120.244 272.616 113.66 278.584 108.896C284.552 104.132 292.424 101.328 300.26 101.748C302.812 101.88 305.335 102.357 307.76 103.164L307.788 206.46Z" fill="url(#paint1_linear_206_520)"/>
<path d="M318 109.532C309.715 107.921 301.136 108.855 293.392 112.212C288.968 114.116 284.46 117.224 282.952 122.212C281.248 127.84 283.92 133.756 286.688 138.74C289.456 143.724 292.512 149.2 291.6 155.028C290.688 160.856 286.084 165.096 281.572 168.34C277.06 171.584 272.08 174.68 269.508 179.904C267.348 184.304 267.264 189.656 268.708 194.304C270.152 198.952 272.984 202.944 276.308 206.164L303.004 210.164L318 109.532Z" fill="url(#paint2_linear_206_520)"/>
<path d="M301.765 107.28C298.861 107.287 295.975 107.728 293.201 108.588C286.249 110.744 280.453 115.348 277.301 121.224C275.429 124.712 274.265 128.7 273.141 132.56C271.173 139.312 269.317 145.688 263.985 149.692C256.749 155.128 246.449 153.248 237.329 150.688C227.421 147.888 217.893 145.8 210.277 150.492C205.173 153.64 202.277 159.168 199.477 164.516C199.085 165.268 198.685 166.015 198.277 166.756C193.969 174.756 189.249 179.1 183.853 179.956C176.593 181.156 169.433 177.928 161.853 174.528C160.713 174.016 159.533 173.488 158.349 172.972C148.453 168.656 137.237 163.772 122.609 171.876C110.245 178.728 100.893 190.708 96.9531 204.748L97.1851 204.812C101.109 190.836 110.417 178.908 122.725 172.084C137.249 164.036 148.409 168.884 158.253 173.188C159.453 173.708 160.617 174.236 161.757 174.748C169.357 178.16 176.557 181.388 183.893 180.196C189.365 179.304 194.141 174.94 198.489 166.848C198.884 166.107 199.284 165.36 199.689 164.608C202.489 159.288 205.365 153.788 210.413 150.676C217.949 146.032 227.421 148.132 237.277 150.9C246.453 153.472 256.821 155.364 264.141 149.864C269.537 145.812 271.405 139.4 273.385 132.608C274.505 128.76 275.665 124.78 277.525 121.316C284.041 109.176 301.125 103.884 313.361 110.216L313.473 110C309.843 108.173 305.829 107.24 301.765 107.28Z" fill="white"/>
<g style="mix-blend-mode:soft-light">
<path d="M222.852 170.721L220.069 167.938L221.189 166.818L223.972 169.601L222.852 170.721ZM220.578 172.995L217.795 170.212L218.915 169.092L221.698 171.875L220.578 172.995ZM235.563 183.432L232.78 180.649L233.9 179.529L236.683 182.312L235.563 183.432ZM233.289 185.706L230.506 182.923L231.626 181.803L234.409 184.586L233.289 185.706ZM229.963 185.706L217.846 173.589L220.714 170.721C221.676 169.759 222.581 169.058 223.429 168.617C224.267 168.164 225.07 167.994 225.839 168.108C226.609 168.221 227.367 168.651 228.113 169.397C228.577 169.861 228.933 170.342 229.182 170.84C229.431 171.338 229.55 171.83 229.539 172.316C229.527 172.803 229.386 173.261 229.115 173.691L229.199 173.776C229.652 173.482 230.133 173.295 230.642 173.216C231.14 173.125 231.671 173.193 232.237 173.419C232.803 173.623 233.402 174.042 234.036 174.675C234.771 175.411 235.241 176.197 235.445 177.034C235.659 177.86 235.609 178.703 235.292 179.563C234.975 180.423 234.409 181.26 233.595 182.074L229.963 185.706ZM225.941 175.371C226.642 174.669 226.988 174.053 226.976 173.521C226.976 172.978 226.705 172.435 226.162 171.892C225.63 171.36 225.081 171.14 224.515 171.23C223.961 171.309 223.333 171.7 222.632 172.401L221.817 173.216L224.957 176.355L225.941 175.371ZM226.705 178.103L230.319 181.718L231.49 180.547C232.214 179.823 232.548 179.15 232.492 178.527C232.424 177.894 232.113 177.3 231.558 176.746C231.196 176.384 230.823 176.135 230.438 175.999C230.054 175.863 229.646 175.874 229.216 176.033C228.775 176.18 228.3 176.508 227.791 177.017L226.705 178.103Z" fill="white"/>
</g>
<g style="mix-blend-mode:soft-light">
<path d="M275.95 186.386L277.8 184.536L286.404 193.14L284.555 194.99L275.95 186.386ZM282.365 182.008L284.215 180.158L290.783 186.725L288.933 188.575L282.365 182.008ZM286.557 176.458L288.407 174.608L296.332 182.534L294.482 184.384L286.557 176.458Z" fill="white"/>
</g>
<g style="mix-blend-mode:soft-light">
<path d="M145.899 199.352L145.042 196.153L143.203 198.286L141.939 197.183L144.514 194.183L143.936 192.027L142.097 194.159L140.833 193.057L143.408 190.056L142.135 185.304L137.429 186.565L136.758 184.061L149.114 180.75L149.785 183.254L145.056 184.521L145.82 187.373L147.726 185.123L149.014 186.219L146.341 189.32L146.925 191.499L148.832 189.249L150.096 190.351L147.447 193.446L148.82 198.57L145.899 199.352Z" fill="white"/>
</g>
</g>
<defs>
<linearGradient id="paint0_linear_206_520" x1="114.729" y1="150.52" x2="310.449" y2="150.52" gradientUnits="userSpaceOnUse">
<stop stop-color="#EB0000"/>
<stop offset="1" stop-color="#982824"/>
</linearGradient>
<linearGradient id="paint1_linear_206_520" x1="212.588" y1="154.26" x2="307.788" y2="154.26" gradientUnits="userSpaceOnUse">
<stop stop-color="#323643"/>
<stop offset="1" stop-color="#13151A"/>
</linearGradient>
<linearGradient id="paint2_linear_206_520" x1="272.145" y1="157.011" x2="314.797" y2="161.276" gradientUnits="userSpaceOnUse">
<stop stop-color="#EB0000"/>
<stop offset="1" stop-color="#982824"/>
</linearGradient>
<clipPath id="clip0_206_520">
<rect width="300" height="200" fill="white" transform="matrix(1 0 0 -1 0 200)"/>
</clipPath>
</defs>
</svg>
