<svg width="795" height="527" viewBox="0 0 795 527" fill="none" xmlns="http://www.w3.org/2000/svg">
<g clip-path="url(#clip0_206_387)">
<g style="mix-blend-mode:overlay" opacity="0.8">
<path d="M867.129 436.445C815.571 398.309 762.255 360.332 702.296 344.283C642.338 328.235 573.661 337.864 528.746 385.597C514.837 400.428 502.05 419.358 483.29 422.897C451.796 428.829 427.336 398.85 396.011 391.773C361.954 384.083 332.727 406.551 311.264 437.526C289.802 468.501 264.654 503.914 229.95 504.465C198.043 504.963 170.627 474.719 138.699 474.804C112.512 474.804 90.2981 494.931 66.9928 508.501C43.6874 522.071 10.8481 526.997 -5.0419 503.427L-6.35547 551.775L873.58 558.978L867.129 436.445Z" fill="#21242D" fill-opacity="0.75"/>
</g>
<g style="mix-blend-mode:overlay" opacity="0.8">
<path d="M870.062 302.62C810.041 292.026 780.729 291.02 736.586 298.382C681.501 307.577 605.759 338.33 573.809 384.188C560.853 402.769 530.991 440.948 509.539 448.098C489.899 454.645 452.335 442.092 425.852 444.126C386.752 447.123 367.959 486.743 328.743 485.884C287.154 484.973 242.111 467.696 204.515 485.524C184.25 495.143 167.036 512.071 144.949 516.012C129.186 518.83 113.169 514.571 97.6494 510.44C82.1301 506.308 66.0177 502.272 50.3289 505.503C34.6402 508.734 14.4811 520.482 0 543.088C0 543.088 838.992 542.177 838.282 539.275C837.573 536.372 864.67 305.988 870.062 302.62Z" fill="#21242C" fill-opacity="0.5"/>
</g>
<path d="M821.64 334.919C823.865 333.531 818.165 262.503 820.379 261.126C793.6 249.812 749.563 262.81 726.438 287.079C687.317 328.129 692.74 359.654 679.742 385.661C672.825 399.517 667.157 416.382 652.729 421.954C634.541 429.03 615.303 416.986 595.875 418.966C577.962 420.799 564.625 433.267 555.716 448.914C546.807 464.56 538.766 482.071 523.3 491.287C500.683 504.772 471.605 495.291 448.278 483.088C424.951 470.884 400.735 455.662 374.559 458.522C355.555 460.641 338.542 472.41 326.942 487.611C315.342 502.813 308.594 521.192 303.838 539.677C303.838 539.677 818.261 538.47 820.379 540.239C822.498 542.008 820.379 338.637 820.379 338.637" fill="url(#paint0_linear_206_387)"/>
<path d="M815.123 546.775C815.123 547.315 814.816 547.75 814.435 547.75H563.002C566.39 535.988 573.386 525.587 583.002 518.014C591.307 511.467 601.286 507.029 611.541 503.692C621.795 500.355 632.367 498.056 642.833 495.323C653.3 492.59 663.681 489.412 673.141 484.444C682.601 479.476 691.15 472.632 696.563 463.808C702.792 453.628 704.434 441.488 703.978 429.761C703.523 418.034 701.171 406.456 699.931 394.803C697.876 375.449 698.967 355.608 704.942 337.027C710.917 318.446 721.976 301.01 737.781 288.393C753.587 275.776 774.434 268.35 795.187 269.463C801.946 269.813 808.627 271.075 815.049 273.213L815.123 546.775Z" fill="url(#paint1_linear_206_387)"/>
<path d="M842.17 290.077C820.229 285.811 797.509 288.285 777 297.175C765.284 302.217 753.345 310.448 749.352 323.658C744.839 338.563 751.915 354.231 759.246 367.43C766.576 380.629 774.67 395.131 772.254 410.566C769.839 426 757.646 437.229 745.697 445.821C733.748 454.412 720.559 462.611 713.747 476.446C708.027 488.099 707.805 502.272 711.629 514.582C715.453 526.891 722.953 537.463 731.756 545.991L802.456 556.584L842.17 290.077Z" fill="url(#paint2_linear_206_387)"/>
<path d="M799.171 284.113C791.481 284.131 783.836 285.299 776.491 287.577C758.08 293.287 742.73 305.48 734.382 321.042C729.425 330.279 726.342 340.841 723.365 351.063C718.153 368.945 713.238 385.83 699.117 396.434C679.954 410.831 652.676 405.852 628.523 399.072C602.284 391.657 577.05 386.127 556.88 398.553C543.363 406.89 535.694 421.53 528.279 435.693C527.24 437.685 526.181 439.662 525.1 441.626C513.691 462.812 501.191 474.317 486.901 476.584C467.674 479.762 448.712 471.213 428.638 462.208C425.618 460.852 422.493 459.454 419.358 458.088C393.15 446.657 363.446 433.723 324.706 455.185C291.962 473.331 267.195 505.058 256.761 542.241L257.375 542.411C267.767 505.397 292.418 473.808 325.014 455.736C363.478 434.422 393.033 447.261 419.104 458.66C422.282 460.037 425.364 461.435 428.383 462.791C448.511 471.827 467.579 480.376 487.007 477.219C501.499 474.857 514.147 463.3 525.662 441.869C526.707 439.906 527.766 437.928 528.84 435.937C536.255 421.848 543.872 407.282 557.241 399.04C577.199 386.742 602.284 392.303 628.385 399.634C652.687 406.445 680.145 411.456 699.53 396.89C713.821 386.159 718.768 369.178 724.012 351.19C726.978 340.999 730.05 330.459 734.976 321.285C752.232 289.135 797.476 275.12 829.881 291.889L830.178 291.317C820.564 286.478 809.933 284.009 799.171 284.113Z" fill="white"/>
<g style="mix-blend-mode:soft-light">
<path d="M370.571 494.874L366.397 490.7L368.077 489.02L372.252 493.194L370.571 494.874ZM367.16 498.285L362.986 494.111L364.666 492.431L368.84 496.605L367.16 498.285ZM389.638 513.941L385.463 509.766L387.143 508.086L391.318 512.261L389.638 513.941ZM386.227 517.352L382.052 513.177L383.732 511.497L387.907 515.672L386.227 517.352ZM381.237 517.352L363.062 499.176L367.364 494.874C368.807 493.432 370.164 492.38 371.437 491.718C372.693 491.039 373.898 490.784 375.052 490.954C376.206 491.124 377.343 491.769 378.463 492.889C379.159 493.585 379.693 494.306 380.066 495.053C380.44 495.799 380.618 496.538 380.601 497.267C380.584 497.997 380.372 498.684 379.965 499.329L380.092 499.456C380.771 499.015 381.492 498.735 382.256 498.616C383.002 498.481 383.8 498.582 384.649 498.922C385.497 499.227 386.397 499.855 387.347 500.806C388.45 501.909 389.154 503.088 389.46 504.344C389.782 505.583 389.706 506.847 389.231 508.137C388.755 509.427 387.907 510.682 386.685 511.904L381.237 517.352ZM375.204 501.849C376.257 500.797 376.774 499.872 376.757 499.075C376.757 498.26 376.35 497.445 375.535 496.631C374.738 495.833 373.915 495.502 373.066 495.638C372.235 495.757 371.293 496.342 370.241 497.395L369.019 498.616L373.728 503.326L375.204 501.849ZM376.35 505.948L381.772 511.37L383.528 509.613C384.615 508.527 385.115 507.517 385.03 506.584C384.929 505.634 384.462 504.743 383.63 503.911C383.087 503.368 382.527 502.995 381.95 502.791C381.373 502.588 380.762 502.604 380.117 502.842C379.456 503.063 378.743 503.555 377.979 504.319L376.35 505.948Z" fill="white"/>
</g>
<g style="mix-blend-mode:soft-light">
<path d="M737.455 500.547L740.968 497.034L736.819 496.245L737.302 493.775L743.132 494.87L745.499 492.503L741.35 491.714L741.833 489.244L747.663 490.339L752.881 485.12L747.714 479.953L750.463 477.204L764.031 490.772L761.282 493.521L756.089 488.328L752.958 491.459L757.311 492.248L756.852 494.743L750.819 493.597L748.427 495.99L752.779 496.779L752.296 499.248L746.288 498.128L740.662 503.754L737.455 500.547Z" fill="white"/>
</g>
<g style="mix-blend-mode:soft-light">
<path d="M592.887 479.108L591.871 475.318L609.501 470.594L610.517 474.384L592.887 479.108ZM592.01 467.491L590.995 463.701L604.452 460.095L605.467 463.885L592.01 467.491ZM587.945 457.884L586.93 454.094L603.169 449.743L604.184 453.533L587.945 457.884Z" fill="white"/>
</g>
</g>
<defs>
<linearGradient id="paint0_linear_206_387" x1="303.838" y1="398.627" x2="822.17" y2="398.627" gradientUnits="userSpaceOnUse">
<stop stop-color="#EB0000"/>
<stop offset="1" stop-color="#982824"/>
</linearGradient>
<linearGradient id="paint1_linear_206_387" x1="563.002" y1="408.532" x2="815.123" y2="408.532" gradientUnits="userSpaceOnUse">
<stop stop-color="#323643"/>
<stop offset="1" stop-color="#13151A"/>
</linearGradient>
<linearGradient id="paint2_linear_206_387" x1="720.732" y1="415.818" x2="833.688" y2="427.114" gradientUnits="userSpaceOnUse">
<stop stop-color="#EB0000"/>
<stop offset="1" stop-color="#982824"/>
</linearGradient>
<clipPath id="clip0_206_387">
<rect width="794.5" height="529.667" fill="white" transform="matrix(1 0 0 -1 0 529.667)"/>
</clipPath>
</defs>
</svg>
